<svg width="298" height="21" viewBox="0 0 298 21" fill="none" xmlns="http://www.w3.org/2000/svg">
<g clip-path="url(#clip0)">
<g opacity="0.7">
<path opacity="0.7" d="M125.605 19.9468V0H130.669V19.9468H125.605Z" fill="white"/>
<path opacity="0.7" d="M163.188 19.9468H159.012L148.622 8.39362V19.9468H143.558V0H147.767L158.157 11.9043V0H163.188V19.9468Z" fill="white"/>
</g>
<path d="M56.0949 8.52128H65.729V12.7979H56.0949V19.9468H51.0312V0H66.9127V4.30851H56.0949V8.52128Z" fill="white"/>
<path d="M78.717 19.9468V0H83.7807V19.9468H78.717Z" fill="white"/>
<path d="M107.192 4.2766V19.9468H102.161V4.2766H95.519V0H113.867V4.2766H107.192Z" fill="white"/>
<path d="M186.797 4.2766V19.9468H181.766V4.2766H175.124V0H193.472V4.2766H186.797Z" fill="white"/>
<path d="M205.21 19.9468V0H210.274V19.9468H205.21Z" fill="white"/>
<path d="M246.87 19.9468H241.971V9.98936L236.611 19.9149H233.455L228.062 9.92553V19.9149H223.163V0H228.128L235.033 12.3511L241.938 0H246.87V19.9468Z" fill="white"/>
<path d="M275.937 19.9468H259.924V0H275.838V4.21277H264.988V7.97872H274.95V11.9681H264.988V15.734H275.937V19.9468Z" fill="white"/>
<path d="M24.6278 21C24.299 21 24.036 20.7766 23.9702 20.4893L21.8658 11.1383L0 11.1063L0.394571 9.79784L22.3919 9.86167C22.7207 9.86167 22.9838 10.0851 23.0495 10.3723L24.4963 16.7872L27.2254 2.77656C27.2583 2.45741 27.5542 2.23401 27.883 2.23401C28.2447 2.23401 28.5078 2.4255 28.5735 2.74465L30.2176 9.98933L37.846 10.0212L37.55 11.3298L29.6915 11.2978C29.3627 11.2978 29.0996 11.0744 29.0339 10.7872L28.0474 6.47869L25.3183 20.4574C25.2526 20.7766 24.9895 21 24.6278 21C24.6278 21 24.6607 21 24.6278 21Z" fill="white"/>
<path d="M286.097 0H290.964V0.893617H289.122V5.10638H287.939V0.893617H286.097V0ZM296.915 5.10638V1.88298L295.139 4.53191H294.613L292.838 1.94681V5.10638H291.72V0H292.673L294.909 3.28723L297.079 0H298.033V5.10638H296.915Z" fill="white"/>
</g>
<defs>
<clipPath id="clip0">
<rect width="298" height="21" fill="white"/>
</clipPath>
</defs>
</svg>
