<svg width="298" height="21" fill="none" xmlns="http://www.w3.org/2000/svg"><g clip-path="url(#clip0)" fill="#fff"><path opacity=".7" d="M125.605 19.947V0h5.064v19.947h-5.064zm37.583 0h-4.176l-10.39-11.553v11.553h-5.064V0h4.209l10.39 11.904V0h5.031v19.947z"/><path d="M56.095 8.521h9.634v4.277h-9.634v7.149H51.03V0h15.882v4.309H56.095V8.52zm22.622 11.426V0h5.064v19.947h-5.064zm28.475-15.67v15.67h-5.031V4.277h-6.642V0h18.348v4.277h-6.675zm79.605 0v15.67h-5.031V4.277h-6.642V0h18.348v4.277h-6.675zm18.413 15.67V0h5.064v19.947h-5.064zm41.66 0h-4.899V9.989l-5.36 9.926h-3.156l-5.393-9.99v9.99h-4.899V0h4.965l6.905 12.351L241.938 0h4.932v19.947zm29.067 0h-16.013V0h15.914v4.213h-10.85v3.766h9.962v3.99h-9.962v3.765h10.949v4.213zM24.628 21a.668.668 0 01-.658-.51l-2.104-9.352L0 11.106l.395-1.308 21.997.064c.329 0 .592.223.657.51l1.447 6.415 2.73-14.01c.032-.32.328-.543.657-.543.362 0 .625.192.69.51l1.645 7.245 7.628.032-.296 1.309-7.858-.032a.668.668 0 01-.658-.51l-.987-4.31-2.729 13.98c-.065.319-.329.542-.69.542 0 0 .033 0 0 0zM286.097 0h4.867v.894h-1.842v4.212h-1.183V.894h-1.842V0zm10.818 5.106V1.883l-1.776 2.649h-.526l-1.775-2.585v3.16h-1.118V0h.953l2.236 3.287L297.079 0h.954v5.106h-1.118z"/></g><defs><clipPath id="clip0"><path fill="#fff" d="M0 0h298v21H0z"/></clipPath></defs></svg>